<svg xmlns="http://www.w3.org/2000/svg" width="35" height="38" viewBox="0 0 35 38">
  <g id="Group_57" data-name="Group 57" transform="translate(-628 -165)">
    <rect id="Rectangle_1519" data-name="Rectangle 1519" width="35" height="38" rx="8" transform="translate(628 165)" fill="#2d2d2d"/>
    <path id="Rectangle_1519_-_Outline" data-name="Rectangle 1519 - Outline" d="M8,1A7.008,7.008,0,0,0,1,8V30a7.008,7.008,0,0,0,7,7H27a7.008,7.008,0,0,0,7-7V8a7.008,7.008,0,0,0-7-7H8M8,0H27a8,8,0,0,1,8,8V30a8,8,0,0,1-8,8H8a8,8,0,0,1-8-8V8A8,8,0,0,1,8,0Z" transform="translate(628 165)" fill="#707070"/>
    <g id="Icon_feather-settings" data-name="Icon feather-settings" transform="translate(635.05 173.55)" opacity="0.59">
      <path id="Path_116" data-name="Path 116" d="M15.941,13A2.941,2.941,0,1,1,13,15.941,2.944,2.944,0,0,1,15.941,13Zm0,4.882A1.941,1.941,0,1,0,14,15.941,1.943,1.943,0,0,0,15.941,17.882Z" transform="translate(-5.491 -5.491)" fill="#fff"/>
      <path id="Path_117" data-name="Path 117" d="M10.515,19.9a2.13,2.13,0,0,1-2.127-2.127v-.067a.838.838,0,0,0-.551-.766l-.029-.012a.842.842,0,0,0-.928.167l-.046.046a2.128,2.128,0,1,1-3.01-3.01l.046-.046a.839.839,0,0,0,.167-.928l0,0a.842.842,0,0,0-.771-.511H3.127a2.127,2.127,0,1,1,0-4.255h.067a.838.838,0,0,0,.766-.551l.012-.029A.838.838,0,0,0,3.8,6.879l-.046-.046a2.128,2.128,0,1,1,3.01-3.01l.046.046a.842.842,0,0,0,.928.167A.5.5,0,0,1,7.889,4a.842.842,0,0,0,.434-.734V3.127a2.127,2.127,0,1,1,4.255,0V3.2a.841.841,0,0,0,.511.769l0,0a.842.842,0,0,0,.928-.167l.046-.046a2.128,2.128,0,1,1,3.01,3.01l-.046.046a.838.838,0,0,0-.167.928.5.5,0,0,1,.039.146.842.842,0,0,0,.734.434h.136a2.127,2.127,0,1,1,0,4.255H17.7a.841.841,0,0,0-.769.511l0,0a.838.838,0,0,0,.167.928l.046.046a2.128,2.128,0,1,1-3.01,3.01l-.046-.046a.842.842,0,0,0-.928-.167l0,0a.842.842,0,0,0-.511.771v.136A2.13,2.13,0,0,1,10.515,19.9ZM8.2,16.007a1.832,1.832,0,0,1,1.191,1.681s0,.008,0,.012v.073a1.127,1.127,0,1,0,2.255,0v-.138a1.852,1.852,0,0,1,3.144-1.318l0,0,.049.049a1.128,1.128,0,1,0,1.6-1.6l-.049-.049,0,0A1.853,1.853,0,0,1,17.7,11.578h.075a1.127,1.127,0,1,0,0-2.255h-.138a1.842,1.842,0,0,1-1.688-1.117.5.5,0,0,1-.039-.162,1.833,1.833,0,0,1,.41-1.931l0,0,.049-.049a1.128,1.128,0,1,0-1.6-1.6l-.049.049,0,0A1.853,1.853,0,0,1,11.578,3.2V3.127a1.127,1.127,0,1,0-2.255,0v.138A1.842,1.842,0,0,1,8.206,4.954a.5.5,0,0,1-.162.039,1.843,1.843,0,0,1-1.931-.41l0,0L6.061,4.53a1.128,1.128,0,1,0-1.6,1.6l.049.049,0,0A1.834,1.834,0,0,1,4.893,8.2,1.832,1.832,0,0,1,3.212,9.388H3.127a1.127,1.127,0,1,0,0,2.255h.138a1.853,1.853,0,0,1,1.318,3.144l0,0-.049.049a1.128,1.128,0,1,0,1.6,1.6l.049-.049,0,0A1.842,1.842,0,0,1,8.2,16.007Z" fill="#fff"/>
    </g>
  </g>
</svg>
